<svg xmlns="http://www.w3.org/2000/svg" viewBox="3 0 58 63" fill="none">
  <!-- Bomb body -->
  <circle cx="32" cy="40" r="22" fill="#1a1a1a" stroke="#1a1a1a" stroke-width="1"/>
  <circle cx="32" cy="40" r="20" fill="#2d2d2d"/>

  <!-- Fuse hole -->
  <ellipse cx="32" cy="19" rx="5" ry="2.5" fill="#1a1a1a"/>

  <!-- Fuse outline -->
  <path d="M32 19 Q27 16 31 13 Q35 10 33 9" stroke="#1a1a1a" stroke-width="4.5" stroke-linecap="round" fill="none"/>
  <!-- Fuse -->
  <path d="M32 19 Q27 16 31 13 Q35 10 33 9" stroke="#8B4513" stroke-width="2.5" stroke-linecap="round" fill="none"/>

  <!-- Flame -->
  <path d="M33 9 Q28 4 33 1 Q38 4 33 9" fill="#FF6B00" stroke="#1a1a1a" stroke-width="1"/>
  <path d="M33 8 Q30 5 33 2.5 Q36 5 33 8" fill="#FFD700"/>

  <!-- Binocular barrel housings -->
  <rect x="4" y="24" width="25" height="18" rx="3" fill="#555555" stroke="#1a1a1a" stroke-width="1"/>
  <rect x="35" y="24" width="25" height="18" rx="3" fill="#555555" stroke="#1a1a1a" stroke-width="1"/>

  <!-- Bridge -->
  <rect x="23.896654" y="26.799217" width="16" height="12.440939" rx="2" fill="#555555" stroke="#1a1a1a" stroke-width="1"/>

  <!-- Lens outer bezels -->
  <circle cx="16" cy="33" r="10.5" fill="#4a4a4a" stroke="#1a1a1a" stroke-width="1"/>
  <circle cx="48" cy="33" r="10.5" fill="#4a4a4a" stroke="#1a1a1a" stroke-width="1"/>

  <!-- Lens rims -->
  <circle cx="16" cy="33" r="9" fill="#1a1a1a"/>
  <circle cx="48" cy="33" r="9" fill="#1a1a1a"/>

  <!-- Lens glass -->
  <circle cx="16" cy="33" r="6.5" fill="#1e3a5f"/>
  <circle cx="48" cy="33" r="6.5" fill="#1e3a5f"/>

  <!-- Lens reflections -->
  <ellipse cx="14" cy="30" rx="2" ry="1.5" fill="white" opacity="0.3"/>
  <ellipse cx="46" cy="30" rx="2" ry="1.5" fill="white" opacity="0.3"/>
</svg>
